PathFileType	4	(X/Y/Z)	s09c0403.trc
DataRate	CameraRate	NumFrames	NumMarkers	Units	OrigDataRate	OrigDataStartFrame	OrigNumFrames
200	200	4	50	mm	200	1000	2000
Frame#	Time	racr			lacr			c7			jug			rlel			rdr			llel			ldr			s2			lic			ric			lasi			rasi			rpsi			lpsi			rgt			lgt			rth1			rth2			rth3			rth4			rlfc			rmfc			rsh1			rsh2			rsh3			rsh4			rlmal			rmmal			rcal			rtoe			rmt5			lth1			lth2			lth4			lth3			llfc			lmfc			llmal			lmmal			lcal			lmt5			lsh1			lsh2			lsh3			lsh4			ltoe			SBIKE			LBIKE			RBIKE			
		X1	Y1	Z1	X2	Y2	Z2	X3	Y3	Z3	X4	Y4	Z4	X5	Y5	Z5	X6	Y6	Z6	X7	Y7	Z7	X8	Y8	Z8	X9	Y9	Z9	X10	Y10	Z10	X11	Y11	Z11	X12	Y12	Z12	X13	Y13	Z13	X14	Y14	Z14	X15	Y15	Z15	X16	Y16	Z16	X17	Y17	Z17	X18	Y18	Z18	X19	Y19	Z19	X20	Y20	Z20	X21	Y21	Z21	X22	Y22	Z22	X23	Y23	Z23	X24	Y24	Z24	X25	Y25	Z25	X26	Y26	Z26	X27	Y27	Z27	X28	Y28	Z28	X29	Y29	Z29	X30	Y30	Z30	X31	Y31	Z31	X32	Y32	Z32	X33	Y33	Z33	X34	Y34	Z34	X35	Y35	Z35	X36	Y36	Z36	X37	Y37	Z37	X38	Y38	Z38	X39	Y39	Z39	X40	Y40	Z40	X41	Y41	Z41	X42	Y42	Z42	X43	Y43	Z43	X44	Y44	Z44	X45	Y45	Z45	X46	Y46	Z46	X47	Y47	Z47	X48	Y48	Z48	X49	Y49	Z49	X50	Y50	Z50	
1000	5.0000	766.536205	1217.331187	-105.184407	770.663862	1170.368299	-476.990731	777.970647	1275.055396	-299.411792	757.639868	1135.555402	-289.883818	574.824346	1091.993254	28.259771	691.290072	906.642838	-53.423546	514.538700	1060.923968	-536.119398	674.258464	908.316664	-450.566894	288.024006	1179.614576	-193.017435	382.232274	1161.689341	-375.046356	453.501215	1113.774284	-88.876314	412.280477	1093.059268	-366.714436	466.185814	1051.317739	-124.700306	338.428216	1193.342343	-139.923240	311.575514	1216.134984	-245.551667	381.367524	985.108020	-43.554867	327.774856	1058.599297	-413.435328	393.273140	855.796379	-57.157448	421.599900	773.161896	-72.164929	397.495138	687.917396	-79.357271	446.813922	775.471451	-98.899015	387.395885	594.814189	-109.731812	350.773780	581.740930	-204.286422	325.456060	516.062546	-70.157147	307.757718	428.901863	-81.383817	250.837270	362.538333	-75.394094	328.641172	420.673512	-114.680601	199.089360	273.177253	-70.654755	202.788864	281.004474	-147.311868	115.825210	284.220989	-109.237198	321.386457	115.931276	-133.603685	251.727531	151.135770	-61.481273	440.477313	969.520172	-419.195934	521.037784	940.270504	-415.207320	541.902991	968.162173	-401.498752	578.744607	871.466479	-418.554862	635.115204	790.921861	-405.660208	646.220314	766.437207	-304.387880	323.256311	589.712099	-409.352771	340.488691	594.761796	-335.395612	235.585768	593.939534	-370.608829	367.562565	480.798640	-433.169991	551.989708	736.825501	-423.945860	491.218158	674.503083	-415.395522	405.466790	651.330967	-413.316701	507.048140	652.290616	-387.630462	458.322194	455.875912	-365.070344	-64.625548	851.359769	-240.741342	21.144546	84.052007	-442.267053	21.131678	84.046023	-43.906696	
1001	5.0050	766.140351	1216.919231	-106.184656	771.765006	1168.465892	-477.371637	778.328087	1274.754406	-300.410644	757.068798	1135.057029	-291.032446	574.541423	1091.356190	26.748323	691.394497	906.418652	-54.134712	514.959698	1060.949998	-536.918078	673.981224	908.732527	-451.010146	289.120565	1181.857877	-192.909840	381.685312	1163.334439	-376.078127	454.367730	1115.986128	-89.665507	410.865364	1094.034052	-367.706092	465.100863	1054.487094	-126.404679	339.502812	1195.596808	-140.198147	312.483256	1218.039476	-245.673410	382.645402	987.322339	-43.899489	327.081511	1060.788556	-413.465002	394.539195	857.675486	-57.353109	422.789349	775.175215	-72.108766	398.635456	689.907806	-79.182936	448.679770	777.636634	-98.079292	387.118154	596.437534	-109.151679	351.543026	583.342809	-203.851169	323.543626	518.992388	-69.814284	304.097489	432.337138	-80.926283	245.645132	367.185559	-75.136767	324.864636	423.032307	-114.452612	192.376607	278.531087	-70.421234	196.625524	286.091518	-147.422481	110.115110	290.552563	-109.984646	311.246755	118.709615	-133.329832	242.307720	155.345894	-61.477129	438.445657	970.752154	-419.530561	518.790269	941.182220	-416.966491	540.145228	969.036619	-403.755328	576.142337	872.204034	-420.275036	634.044794	791.630790	-407.988882	646.686459	767.675751	-306.837413	327.048579	583.142509	-409.179197	343.429325	589.224296	-334.898752	239.170877	584.266310	-370.054101	375.555393	476.799541	-433.505118	552.325555	735.348104	-425.812253	492.948310	671.781298	-416.579069	407.722859	646.761699	-413.972610	509.314162	650.300726	-388.601908	467.628584	455.840795	-365.890217	-64.631448	851.357840	-240.781990	21.139479	84.037344	-442.273063	21.147086	84.070598	-43.903379	
1002	5.0100	766.163621	1215.996880	-107.294395	772.568972	1166.859836	-477.514058	778.787358	1274.554676	-300.977467	756.614507	1134.817932	-291.979247	574.067802	1090.721276	25.166874	691.431691	906.289820	-54.661206	515.186696	1061.068895	-537.779091	673.815787	908.723766	-451.429369	289.867747	1184.302901	-193.080346	381.323066	1164.815655	-377.338536	455.171670	1118.499568	-90.369612	410.793622	1095.447501	-368.923099	465.920121	1056.432671	-126.801904	340.378406	1197.969092	-140.717442	313.304169	1219.803310	-246.265013	383.647555	989.765562	-44.184165	326.630258	1062.831690	-413.548370	395.818981	859.811392	-57.487733	424.195818	777.231215	-72.070792	400.595719	691.956184	-79.192286	450.233946	779.764920	-97.804684	387.746802	598.060934	-108.650769	353.259427	585.120456	-203.446727	322.341107	522.055898	-69.445908	300.898208	435.802052	-80.555324	241.094370	372.063057	-75.011987	321.840762	426.061157	-113.764389	186.091539	284.357968	-70.304298	190.482359	291.997928	-147.508324	104.554397	298.025712	-110.501994	301.291197	121.638775	-133.178015	233.257704	160.112730	-61.443202	436.301984	971.312523	-420.009624	516.384743	941.001706	-418.500332	538.190077	968.844980	-406.005499	573.076357	871.566025	-422.178777	632.491759	791.277731	-410.155330	646.759791	768.238477	-308.821251	330.550754	576.087578	-409.559014	346.392618	582.726255	-334.668672	242.575129	573.511378	-370.049229	383.495850	472.029995	-433.650548	552.326678	732.711977	-427.415983	494.206688	667.960507	-417.689682	409.586196	641.090562	-414.679500	511.153762	647.197744	-389.267390	476.402144	455.090515	-366.057084	-64.648524	851.375671	-240.854460	21.135455	84.044999	-442.284650	21.124013	84.105732	-43.918680	
1003	5.0150	766.027262	1215.240826	-107.881618	773.069376	1165.729164	-477.588351	779.225433	1274.496383	-301.511530	756.217440	1134.751370	-292.753308	573.537983	1090.010603	23.553742	691.400237	906.244495	-54.980587	515.543174	1061.126399	-538.687682	673.628853	908.706358	-451.941417	290.436370	1186.748894	-193.608443	381.266199	1166.072308	-378.579877	455.934779	1121.072622	-90.954421	410.876088	1096.584132	-370.023608	466.811272	1058.334998	-127.366202	339.364640	1200.583903	-140.893187	314.376386	1221.546338	-247.081308	384.333747	992.441589	-44.563510	326.308406	1064.606828	-413.704056	397.161325	862.090097	-57.556183	425.930990	779.489260	-71.973980	402.481555	694.016363	-79.573025	450.931604	781.741512	-99.008734	389.332060	599.938511	-107.986265	355.795464	587.138940	-203.095810	321.863152	525.323728	-69.113187	298.409779	439.670434	-80.199000	236.998361	377.271502	-74.881349	319.350613	429.186195	-113.203966	180.272058	290.727770	-70.181704	185.037415	298.076171	-147.649251	99.123463	306.204865	-110.711329	291.624809	125.313116	-133.003172	224.460656	165.441256	-61.428479	434.286245	971.299756	-420.495511	513.965571	940.008607	-419.841334	536.392965	967.718542	-408.173045	569.778070	869.860335	-423.826126	630.806489	789.621649	-411.048346	646.005188	767.746836	-311.051779	333.868935	567.630465	-409.745239	349.537624	575.332652	-334.941837	246.161409	561.697819	-370.564666	391.217345	466.510654	-433.736209	551.782004	729.164913	-429.217351	495.118681	663.268904	-418.657961	411.155985	634.513804	-415.505391	512.604210	643.392738	-390.184675	484.640223	453.759448	-366.302506	-64.636809	851.384810	-240.937012	21.125778	84.038451	-442.301362	21.098499	84.064939	-43.946606	
